<svg width="423" height="210" viewBox="0 0 423 210" fill="none" xmlns="http://www.w3.org/2000/svg">
<g filter="url(#filter0_d_39_341)">
<path d="M392.983 120.318C410.264 101.122 442.439 53.2053 374.5 51.5476C336.061 50.6097 300.232 80.2595 251.993 77.0153C203.754 73.7711 106.207 29.9069 85.7019 13.1076C58.887 -8.86068 36.958 9.40908 28.1488 39.49C19.1226 70.3115 42.3925 64.2596 51.98 72.8908C55.0076 75.6165 44.4195 81.289 23.7478 93.0884C0.0138615 106.636 -2.56386 133.478 42.3729 157.642C88.8175 182.617 91.8473 135.743 134.143 118.621C181.577 99.4198 273.894 136.915 302.656 162.809C318.804 177.346 374.481 214.949 395.257 191.871C409.298 176.275 418.116 161.406 397.931 143.235C384.345 131.003 381.388 133.197 392.983 120.318Z" fill="url(#paint0_linear_39_341)" shape-rendering="crispEdges"/>
<path d="M392.983 120.318C410.264 101.122 442.439 53.2053 374.5 51.5476C336.061 50.6097 300.232 80.2595 251.993 77.0153C203.754 73.7711 106.207 29.9069 85.7019 13.1076C58.887 -8.86068 36.958 9.40908 28.1488 39.49C19.1226 70.3115 42.3925 64.2596 51.98 72.8908C55.0076 75.6165 44.4195 81.289 23.7478 93.0884C0.0138615 106.636 -2.56386 133.478 42.3729 157.642C88.8175 182.617 91.8473 135.743 134.143 118.621C181.577 99.4198 273.894 136.915 302.656 162.809C318.804 177.346 374.481 214.949 395.257 191.871C409.298 176.275 418.116 161.406 397.931 143.235C384.345 131.003 381.388 133.197 392.983 120.318Z" stroke="#A07F6A" stroke-width="5" shape-rendering="crispEdges"/>
</g>
<defs>
<filter id="filter0_d_39_341" x="0.448486" y="0.929337" width="421.949" height="208.757" filterUnits="userSpaceOnUse" color-interpolation-filters="sRGB">
<feFlood flood-opacity="0" result="BackgroundImageFix"/>
<feColorMatrix in="SourceAlpha" type="matrix" values="0 0 0 0 0 0 0 0 0 0 0 0 0 0 0 0 0 0 127 0" result="hardAlpha"/>
<feOffset dy="4"/>
<feGaussianBlur stdDeviation="2"/>
<feComposite in2="hardAlpha" operator="out"/>
<feColorMatrix type="matrix" values="0 0 0 0 0 0 0 0 0 0 0 0 0 0 0 0 0 0 0.25 0"/>
<feBlend mode="normal" in2="BackgroundImageFix" result="effect1_dropShadow_39_341"/>
<feBlend mode="normal" in="SourceGraphic" in2="effect1_dropShadow_39_341" result="shape"/>
</filter>
<linearGradient id="paint0_linear_39_341" x1="429.5" y1="199" x2="-62.5" y2="204" gradientUnits="userSpaceOnUse">
<stop offset="0.0716976" stop-color="white"/>
<stop offset="0.793833" stop-color="white" stop-opacity="0"/>
</linearGradient>
</defs>
</svg>
